{
  "accessors": [
    {
      "bufferView": 2,
      "componentType": 5126,
      "count": 9394,
      "max": [
        29.93255615234375,
        27.774703979492188,
        112.57107543945313
      ],
      "min": [
        -33.107810974121094,
        -40.361351013183594,
        0.10013389587402344
      ],
      "type": "VEC3"
    },
    {
      "bufferView": 2,
      "byteOffset": 112728,
      "componentType": 5126,
      "count": 9394,
      "max": [
        1.0,
        0.999790370464325,
        0.9999977350234985
      ],
      "min": [
        -1.0,
        -0.9999989867210388,
        -1.0
      ],
      "type": "VEC3"
    },
    {
      "bufferView": 1,
      "componentType": 5126,
      "count": 9394,
      "max": [
        0.9990000128746033,
        0.9988449811935425
      ],
      "min": [
        0.0010000000474974513,
        0.0010000000474974513
      ],
      "type": "VEC2"
    },
    {
      "bufferView": 0,
      "componentType": 5125,
      "count": 49728,
      "type": "SCALAR"
    },
    {
      "bufferView": 2,
      "byteOffset": 225456,
      "componentType": 5126,
      "count": 9394,
      "max": [
        30.424760818481445,
        28.67436981201172,
        113.05176544189453
      ],
      "min": [
        -33.60352325439453,
        -40.46134948730469,
        -0.39305099844932556
      ],
      "type": "VEC3"
    },
    {
      "bufferView": 2,
      "byteOffset": 338184,
      "componentType": 5126,
      "count": 9394,
      "max": [
        1.0,
        0.999998927116394,
        1.0
      ],
      "min": [
        -1.0,
        -0.9997501969337463,
        -0.9999977350234985
      ],
      "type": "VEC3"
    },
    {
      "bufferView": 1,
      "byteOffset": 75152,
      "componentType": 5126,
      "count": 9394,
      "max": [
        0.9990000128746033,
        0.9988449811935425
      ],
      "min": [
        0.0010000000474974513,
        0.0010000000474974513
      ],
      "type": "VEC2"
    },
    {
      "bufferView": 0,
      "byteOffset": 198912,
      "componentType": 5125,
      "count": 49728,
      "type": "SCALAR"
    }
  ],
  "asset": {
    "extras": {
      "author": "Mora (https://sketchfab.com/MoraAzul)",
      "license": "CC-BY-4.0 (http://creativecommons.org/licenses/by/4.0/)",
      "source": "https://sketchfab.com/3d-models/courage-eggplant-64f9e381222141db90522a11687374fa",
      "title": "Courage Eggplant"
    },
    "generator": "Sketchfab-16.8.0",
    "version": "2.0"
  },
  "bufferViews": [
    {
      "buffer": 0,
      "byteLength": 397824,
      "name": "floatBufferViews",
      "target": 34963
    },
    {
      "buffer": 0,
      "byteLength": 150304,
      "byteOffset": 397824,
      "byteStride": 8,
      "name": "floatBufferViews",
      "target": 34962
    },
    {
      "buffer": 0,
      "byteLength": 450912,
      "byteOffset": 548128,
      "byteStride": 12,
      "name": "floatBufferViews",
      "target": 34962
    }
  ],
  "buffers": [
    {
      "byteLength": 999040,
      "uri": "scene.bin"
    }
  ],
  "extensionsUsed": [
    "KHR_materials_unlit"
  ],
  "images": [
    {
      "uri": "textures/Coraje_baseColor.png"
    }
  ],
  "materials": [
    {
      "doubleSided": true,
      "extensions": {
        "KHR_materials_unlit": {}
      },
      "name": "Coraje",
      "pbrMetallicRoughness": {
        "baseColorTexture": {
          "index": 0
        },
        "metallicFactor": 0.0
      }
    },
    {
      "extensions": {
        "KHR_materials_unlit": {}
      },
      "name": "Outline",
      "pbrMetallicRoughness": {
        "baseColorFactor": [
          0.006611041480529773,
          0.006563264134209388,
          0.006563264134209388,
          1.0
        ],
        "metallicFactor": 0.0
      }
    }
  ],
  "meshes": [
    {
      "name": "Coraje_Coraje _0",
      "primitives": [
        {
          "attributes": {
            "NORMAL": 1,
            "POSITION": 0,
            "TEXCOORD_0": 2
          },
          "indices": 3,
          "material": 0,
          "mode": 4
        }
      ]
    },
    {
      "name": "Object_Outline_0",
      "primitives": [
        {
          "attributes": {
            "NORMAL": 5,
            "POSITION": 4,
            "TEXCOORD_0": 6
          },
          "indices": 7,
          "material": 1,
          "mode": 4
        }
      ]
    }
  ],
  "nodes": [
    {
      "children": [
        1
      ],
      "matrix": [
        1.0,
        0.0,
        0.0,
        0.0,
        0.0,
        -0.0056379507295789555,
        0.999984085559845,
        0.0,
        0.0,
        -0.999984085559845,
        -0.0056379507295789555,
        0.0,
        0.0,
        0.0,
        0.0,
        1.0
      ],
      "name": "Sketchfab_model"
    },
    {
      "children": [
        2
      ],
      "matrix": [
        0.02539999969303608,
        0.0,
        0.0,
        0.0,
        0.0,
        -0.02539999969303608,
        0.0,
        0.0,
        0.0,
        0.0,
        -0.02539999969303608,
        0.0,
        0.0,
        0.0,
        0.0,
        1.0
      ],
      "name": "e5487809cf6e43cf8eab615fa8b3ed4a.fbx"
    },
    {
      "children": [
        3,
        5
      ],
      "name": "RootNode"
    },
    {
      "children": [
        4
      ],
      "name": "Coraje"
    },
    {
      "mesh": 0,
      "name": "Coraje_Coraje _0"
    },
    {
      "children": [
        6
      ],
      "name": "Object"
    },
    {
      "mesh": 1,
      "name": "Object_Outline_0"
    }
  ],
  "samplers": [
    {
      "magFilter": 9729,
      "minFilter": 9987,
      "wrapS": 10497,
      "wrapT": 10497
    }
  ],
  "scene": 0,
  "scenes": [
    {
      "name": "Sketchfab_Scene",
      "nodes": [
        0
      ]
    }
  ],
  "textures": [
    {
      "sampler": 0,
      "source": 0
    }
  ]
}
